<svg width="63" height="45" viewBox="0 0 63 45" fill="none" xmlns="http://www.w3.org/2000/svg">
<g clip-path="url(#clip0_20_1714)">
<rect width="63" height="45" rx="8" fill="#249F58"/>
<g filter="url(#filter0_dd_20_1714)">
<rect width="63" height="45" rx="8" fill="#F93939"/>
<path fill-rule="evenodd" clip-rule="evenodd" d="M0 0H21V45H0V0Z" fill="#249F58"/>
<path d="M21.0001 30.0001C25.9706 30.0001 30.0001 25.9706 30.0001 21.0001C30.0001 16.0295 25.9706 12.0001 21.0001 12.0001C16.0295 12.0001 12.0001 16.0295 12.0001 21.0001C12.0001 25.9706 16.0295 30.0001 21.0001 30.0001Z" fill="#FFDA2C"/>
<path fill-rule="evenodd" clip-rule="evenodd" d="M27 23.9999V14.9999H15V23.9999C15 25.6559 17.685 26.9999 21 26.9999C24.315 26.9999 27 25.6559 27 23.9999Z" fill="#F93939"/>
<path fill-rule="evenodd" clip-rule="evenodd" d="M17.9999 18H23.9999V24H17.9999V18Z" fill="white"/>
<path fill-rule="evenodd" clip-rule="evenodd" d="M17.9999 18H20.9999V21H17.9999V18ZM20.9999 21H23.9999V24H20.9999V21Z" fill="#1A47B8"/>
</g>
</g>
<defs>
<filter id="filter0_dd_20_1714" x="-7.71429" y="-2.57143" width="78.4286" height="60.4286" filterUnits="userSpaceOnUse" color-interpolation-filters="sRGB">
<feFlood flood-opacity="0" result="BackgroundImageFix"/>
<feColorMatrix in="SourceAlpha" type="matrix" values="0 0 0 0 0 0 0 0 0 0 0 0 0 0 0 0 0 0 127 0" result="hardAlpha"/>
<feOffset dy="5.14286"/>
<feGaussianBlur stdDeviation="3.85714"/>
<feComposite in2="hardAlpha" operator="out"/>
<feColorMatrix type="matrix" values="0 0 0 0 0.258824 0 0 0 0 0.278431 0 0 0 0 0.298039 0 0 0 0.08 0"/>
<feBlend mode="normal" in2="BackgroundImageFix" result="effect1_dropShadow_20_1714"/>
<feColorMatrix in="SourceAlpha" type="matrix" values="0 0 0 0 0 0 0 0 0 0 0 0 0 0 0 0 0 0 127 0" result="hardAlpha"/>
<feOffset/>
<feGaussianBlur stdDeviation="0.321429"/>
<feComposite in2="hardAlpha" operator="out"/>
<feColorMatrix type="matrix" values="0 0 0 0 0.258824 0 0 0 0 0.278431 0 0 0 0 0.298039 0 0 0 0.32 0"/>
<feBlend mode="normal" in2="effect1_dropShadow_20_1714" result="effect2_dropShadow_20_1714"/>
<feBlend mode="normal" in="SourceGraphic" in2="effect2_dropShadow_20_1714" result="shape"/>
</filter>
<clipPath id="clip0_20_1714">
<rect width="63" height="45" rx="8" fill="white"/>
</clipPath>
</defs>
</svg>
